<?xml version="1.0" encoding="iso-8859-1"?>
<!-- Uploaded to: SVG Repo, www.svgrepo.com, Generator: SVG Repo Mixer Tools -->
<svg fill="#000000" height="800px" width="800px" version="1.1" id="Layer_1" xmlns="http://www.w3.org/2000/svg" xmlns:xlink="http://www.w3.org/1999/xlink" 
	 viewBox="0 0 512.001 512.001" xml:space="preserve">
<g>
	<g>
		<path d="M430.431,260.297c-1.309-4.029-4.792-6.966-8.984-7.575l-30.279-4.4c-6.085-0.886-11.731,3.33-12.615,9.414
			c-0.884,6.083,3.331,11.731,9.414,12.615l7.962,1.158l-65.773,64.112c-2.623,2.557-3.821,6.241-3.201,9.852l15.527,90.528
			l-81.3-42.742c-3.242-1.705-7.117-1.705-10.359,0l-81.3,42.742l15.527-90.528c0.62-3.611-0.578-7.295-3.201-9.852l-65.772-64.112
			l90.895-13.208c3.625-0.526,6.76-2.804,8.38-6.088l40.649-82.365l40.649,82.365c1.622,3.285,4.755,5.562,8.38,6.088l16.152,2.347
			c6.079,0.885,11.732-3.33,12.615-9.414c0.884-6.084-3.33-11.731-9.414-12.615l-10.361-1.506l-48.041-97.342
			c-1.874-3.8-5.743-6.205-9.981-6.205s-8.106,2.405-9.981,6.204l-48.041,97.342L90.556,252.721
			c-4.193,0.609-7.676,3.546-8.986,7.575c-1.31,4.029-0.217,8.452,2.817,11.41l77.731,75.77l-18.35,106.989
			c-0.717,4.176,0.999,8.396,4.428,10.887c3.427,2.49,7.972,2.818,11.721,0.847l96.082-50.512l96.082,50.513
			c1.628,0.856,3.407,1.279,5.178,1.279c2.307,0,4.605-0.717,6.544-2.126c3.428-2.49,5.144-6.711,4.428-10.887l-18.35-106.989
			l77.732-75.77C430.648,268.75,431.74,264.327,430.431,260.297z"/>
	</g>
</g>
<g>
	<g>
		<path d="M367.082,252.305c-0.134-0.701-0.356-1.402-0.634-2.081c-0.278-0.668-0.612-1.313-1.024-1.914
			c-0.401-0.612-0.868-1.18-1.38-1.692c-0.512-0.512-1.08-0.979-1.692-1.391c-0.601-0.401-1.247-0.746-1.914-1.024
			c-0.679-0.278-1.38-0.49-2.093-0.634c-1.425-0.289-2.905-0.289-4.341,0c-0.712,0.145-1.414,0.356-2.081,0.634
			c-0.679,0.278-1.325,0.623-1.926,1.024c-0.612,0.412-1.18,0.879-1.692,1.391c-0.512,0.512-0.979,1.08-1.38,1.692
			c-0.401,0.601-0.746,1.247-1.024,1.914c-0.278,0.679-0.501,1.38-0.634,2.081c-0.145,0.724-0.223,1.458-0.223,2.182
			c0,0.723,0.078,1.458,0.223,2.17c0.134,0.712,0.356,1.414,0.634,2.081c0.279,0.679,0.624,1.324,1.024,1.926
			c0.401,0.612,0.868,1.18,1.38,1.692c0.512,0.512,1.08,0.979,1.692,1.38c0.601,0.401,1.247,0.746,1.926,1.024
			c0.668,0.278,1.369,0.49,2.081,0.634c0.712,0.145,1.447,0.223,2.17,0.223c0.723,0,1.458-0.078,2.17-0.223
			c0.712-0.145,1.414-0.356,2.093-0.634c0.668-0.278,1.313-0.623,1.914-1.024c0.612-0.401,1.18-0.868,1.692-1.38
			c0.512-0.512,0.979-1.08,1.38-1.692c0.412-0.601,0.746-1.247,1.024-1.926c0.278-0.668,0.501-1.369,0.634-2.081
			c0.145-0.712,0.223-1.447,0.223-2.17S367.227,253.028,367.082,252.305z"/>
	</g>
</g>
<g>
	<g>
		<path d="M511.456,105.97c-1.309-4.029-4.793-6.967-8.986-7.575l-45.334-6.587l-20.274-41.08c-1.875-3.799-5.744-6.204-9.981-6.204
			c-4.237,0-8.106,2.405-9.981,6.204l-20.274,41.079l-45.334,6.587c-4.193,0.609-7.675,3.546-8.986,7.575
			c-1.31,4.029-0.217,8.452,2.817,11.41l32.805,31.977l-7.745,45.151c-0.717,4.175,1,8.396,4.428,10.887
			c3.427,2.49,7.972,2.818,11.721,0.847l40.548-21.317l40.548,21.317c1.628,0.856,3.407,1.279,5.178,1.279
			c2.307,0,4.605-0.717,6.544-2.126c3.428-2.49,5.144-6.711,4.428-10.887l-7.745-45.151l32.805-31.977
			C511.674,114.422,512.766,109.999,511.456,105.97z M456.106,137.499c-2.623,2.557-3.821,6.241-3.201,9.852l4.921,28.69
			l-25.766-13.546c-1.622-0.853-3.4-1.279-5.179-1.279s-3.558,0.426-5.179,1.279l-25.765,13.546l4.921-28.69
			c0.62-3.611-0.578-7.295-3.201-9.852l-20.845-20.319l28.807-4.186c3.625-0.526,6.759-2.804,8.38-6.088l12.882-26.103
			l12.883,26.103c1.622,3.285,4.755,5.562,8.38,6.088l28.807,4.186L456.106,137.499z"/>
	</g>
</g>
<g>
	<g>
		<path d="M169.695,105.97c-1.309-4.029-4.793-6.967-8.986-7.575l-45.334-6.587l-20.274-41.08c-1.874-3.799-5.743-6.205-9.981-6.205
			c-4.236,0-8.106,2.405-9.981,6.204l-20.275,41.08L9.531,98.393c-4.193,0.609-7.676,3.546-8.986,7.575
			c-1.31,4.029-0.217,8.452,2.817,11.41l32.805,31.977l-7.745,45.151c-0.717,4.176,1,8.396,4.428,10.887
			c1.94,1.409,4.235,2.126,6.544,2.126c1.771,0,3.549-0.423,5.178-1.279l40.548-21.317l40.549,21.318
			c3.749,1.971,8.293,1.643,11.721-0.847s5.144-6.711,4.428-10.887l-7.745-45.151l32.805-31.977
			C169.912,114.422,171.004,109.999,169.695,105.97z M114.345,137.499c-2.623,2.557-3.821,6.241-3.201,9.852l4.921,28.69
			L90.3,162.495c-3.242-1.705-7.117-1.705-10.359,0l-25.765,13.547l4.921-28.69c0.62-3.611-0.578-7.295-3.201-9.852l-20.845-20.32
			l28.807-4.186c3.625-0.526,6.76-2.804,8.38-6.088l12.883-26.103l12.882,26.103c1.622,3.286,4.755,5.562,8.38,6.088l28.807,4.186
			L114.345,137.499z"/>
	</g>
</g>
</svg>